<?xml version="1.0" standalone="no"?>
<!DOCTYPE svg PUBLIC "-//W3C//DTD SVG 20010904//EN"
 "http://www.w3.org/TR/2001/REC-SVG-20010904/DTD/svg10.dtd">
<svg version="1.0" xmlns="http://www.w3.org/2000/svg"
 width="243.000000pt" height="351.000000pt" viewBox="0 0 243.000000 351.000000"
 preserveAspectRatio="xMidYMid meet">

<g transform="translate(0.000000,351.000000) scale(0.100000,-0.100000)"
fill="#000000" stroke="none">
<path d="M0 3035 l0 -475 270 0 270 0 0 -805 0 -805 -270 0 -270 0 0 -470 0
-470 1210 0 1210 0 0 470 0 470 -270 0 -270 0 0 805 0 805 270 0 270 0 0 475
0 475 -1210 0 -1210 0 0 -475z m137 -167 c-1 -95 -3 -20 -3 167 0 187 2 265 3
173 2 -92 2 -245 0 -340z m540 -1521 c-1 -226 -2 -41 -2 413 0 454 1 639 2
412 2 -226 2 -598 0 -825z m-540 -1034 c-1 -93 -3 -17 -3 167 0 184 2 260 3
168 2 -93 2 -243 0 -335z"/>
</g>
</svg>
